<svg width="361" height="162" viewBox="0 0 361 162" fill="none" xmlns="http://www.w3.org/2000/svg">
<g clip-path="url(#clip0_1_2)">
<path d="M213.18 52.42L213.21 52.39H213.2V52.42H213.18Z" fill="url(#paint0_linear_1_2)"/>
<path d="M168.83 58.75L168.76 58.69L168.7 58.75L164.72 62.73L168.76 66.77L172.8 62.73L168.83 58.75Z" fill="url(#paint1_linear_1_2)"/>
<path d="M168.76 23.91L164.38 28.29C158.13 34.54 158.13 44.71 164.38 50.96L168.76 55.34L173.14 50.96C179.39 44.71 179.39 34.54 173.14 28.29L168.76 23.91Z" fill="url(#paint2_linear_1_2)"/>
<path d="M151.69 33.38H145.5V39.57C145.5 48.41 152.69 55.6 161.53 55.6H166.07L162.91 52.44C158.14 47.67 156.6 40.88 158.27 34.8C156.26 33.89 154.03 33.38 151.69 33.38V33.38Z" fill="url(#paint3_linear_1_2)"/>
<path d="M147.3 64.37C143.89 63.41 140.76 61.58 138.18 59L131.46 52.28L138.18 45.56C139.7 44.04 141.42 42.77 143.28 41.8C143.09 41.46 142.91 41.12 142.74 40.77C142.65 40.59 142.57 40.42 142.48 40.24C138.27 40.96 134.24 42.94 130.99 46.19L125 52.18L130.99 58.17C135.46 62.64 141.43 64.71 147.3 64.4V64.37Z" fill="url(#paint4_linear_1_2)"/>
<path d="M167.27 22.45C164.34 18.83 160.43 16.11 155.91 14.58L146.49 11.4L143.31 20.82C141.51 26.14 141.56 31.79 143.4 37.01V31.29H151.68C154.26 31.29 156.71 31.83 158.93 32.8C159.81 30.62 161.14 28.58 162.9 26.81L167.26 22.45H167.27Z" fill="url(#paint5_linear_1_2)"/>
<path d="M171.46 55.59H176C184.84 55.59 192.03 48.4 192.03 39.56V33.37H185.84C183.5 33.37 181.27 33.88 179.26 34.79C180.93 40.87 179.39 47.66 174.62 52.43L171.46 55.59Z" fill="url(#paint6_linear_1_2)"/>
<path d="M168.761 69.4015L166.413 71.7491L168.761 74.0967L171.108 71.7491L168.761 69.4015Z" fill="url(#paint7_linear_1_2)"/>
<path d="M194.11 20.52L190.83 11.14L181.45 14.42C176.86 16.03 173.04 18.85 170.21 22.41L174.61 26.81C176.38 28.58 177.7 30.62 178.58 32.8C180.8 31.83 183.25 31.29 185.83 31.29H194.11V36.97C195.98 31.66 196 25.91 194.11 20.52Z" fill="url(#paint8_linear_1_2)"/>
<path d="M168.766 76.7294L167.698 77.7971L168.766 78.8648L169.833 77.7971L168.766 76.7294Z" fill="url(#paint9_linear_1_2)"/>
<path d="M203.02 52.28L197.77 47.03C196.51 45.77 195.11 44.72 193.6 43.87C191.66 51.79 184.51 57.68 176 57.68H171.15C174.71 61.15 179.39 63.07 184.38 63.07C189.37 63.07 194.2 61.1 197.77 57.52L203.02 52.27V52.28Z" fill="url(#paint10_linear_1_2)"/>
<path d="M134.4 52.28L139.65 57.53C143.23 61.11 147.98 63.08 153.04 63.08C158.1 63.08 162.71 61.17 166.27 57.69H161.53C153 57.69 145.84 51.77 143.92 43.83C142.37 44.68 140.94 45.76 139.65 47.04L134.4 52.29V52.28Z" fill="url(#paint11_linear_1_2)"/>
<path d="M180.47 12.56C179.41 10.94 178.18 9.42 176.78 8.02L168.76 0L160.75 8.01C159.29 9.47 158.02 11.06 156.95 12.73C161.61 14.38 165.64 17.2 168.72 20.93C171.7 17.24 175.7 14.29 180.46 12.56H180.47Z" fill="url(#paint12_linear_1_2)"/>
<path d="M130.75 31.85C130.75 35.43 131.51 38.83 132.87 41.9C135.51 40.09 138.49 38.85 141.63 38.24C139.66 33 139.37 27.34 140.81 21.91C140.77 21.91 140.73 21.91 140.69 21.91H130.75V31.85V31.85Z" fill="url(#paint13_linear_1_2)"/>
<path d="M204.57 41.64C205.86 38.63 206.58 35.32 206.58 31.85V21.91H196.72C198.16 27.38 197.85 33.09 195.83 38.36C198.89 38.85 201.87 39.94 204.57 41.64Z" fill="url(#paint14_linear_1_2)"/>
<path d="M207.22 46.41C203.78 42.97 199.46 40.95 194.97 40.35C194.95 40.38 194.94 40.42 194.92 40.45C194.69 40.92 194.45 41.38 194.2 41.83C196.03 42.8 197.72 44.05 199.23 45.56L205.95 52.28L199.23 59C196.53 61.7 193.22 63.57 189.62 64.5C195.89 65.22 202.41 63.18 207.21 58.38L213.17 52.42V52.38L207.21 46.41H207.22Z" fill="url(#paint15_linear_1_2)"/>
<path d="M66.07 117.85C66.16 121.43 66.59 122.56 67.77 122.91C68.6 123.13 69.56 123.17 69.95 123.17C70.17 123.17 70.3 123.26 70.3 123.43C70.3 123.69 70.04 123.78 69.51 123.78C67.02 123.78 65.28 123.65 64.89 123.65C64.5 123.65 62.67 123.78 60.7 123.78C60.26 123.78 60 123.74 60 123.43C60 123.26 60.13 123.17 60.35 123.17C60.7 123.17 61.48 123.13 62.14 122.91C63.23 122.6 63.45 121.34 63.45 117.37L63.49 92.37C63.49 90.67 63.62 90.19 63.97 90.19C64.32 90.19 65.06 91.15 65.5 91.59C66.15 92.33 72.65 99.36 79.37 106.55C83.69 111.17 88.44 116.5 89.84 117.94L89.36 95.78C89.32 92.94 89.01 91.98 87.66 91.64C86.87 91.47 85.87 91.42 85.52 91.42C85.21 91.42 85.17 91.29 85.17 91.11C85.17 90.85 85.52 90.8 86.04 90.8C88 90.8 90.1 90.93 90.58 90.93C91.06 90.93 92.5 90.8 94.29 90.8C94.77 90.8 95.08 90.84 95.08 91.11C95.08 91.28 94.91 91.42 94.6 91.42C94.38 91.42 94.08 91.42 93.55 91.55C92.11 91.86 91.94 92.82 91.94 95.43L91.85 120.99C91.85 123.87 91.76 124.09 91.46 124.09C91.11 124.09 90.59 123.61 88.28 121.3C87.8 120.86 81.52 114.45 76.89 109.48C71.83 104.03 66.9 98.53 65.5 96.96L66.07 117.86V117.85Z" fill="black"/>
<path d="M109.87 111.13C109.87 115.32 109.87 118.76 110.09 120.6C110.22 121.87 110.48 122.82 111.79 123C112.4 123.09 113.36 123.17 113.75 123.17C114.01 123.17 114.1 123.3 114.1 123.43C114.1 123.65 113.88 123.78 113.4 123.78C111 123.78 108.25 123.65 108.03 123.65C107.81 123.65 105.06 123.78 103.75 123.78C103.27 123.78 103.05 123.69 103.05 123.43C103.05 123.3 103.14 123.17 103.4 123.17C103.79 123.17 104.32 123.08 104.71 123C105.58 122.83 105.8 121.87 105.98 120.6C106.2 118.77 106.2 115.32 106.2 111.13V103.45C106.2 96.64 106.2 95.42 106.11 94.03C106.02 92.55 105.59 91.81 104.63 91.59C104.15 91.46 103.58 91.42 103.28 91.42C103.11 91.42 102.93 91.33 102.93 91.16C102.93 90.9 103.15 90.81 103.63 90.81C105.07 90.81 107.82 90.94 108.04 90.94C108.26 90.94 111.01 90.81 112.32 90.81C112.8 90.81 113.02 90.9 113.02 91.16C113.02 91.33 112.85 91.42 112.67 91.42C112.36 91.42 112.1 91.46 111.58 91.55C110.4 91.77 110.05 92.51 109.97 94.04C109.88 95.44 109.88 96.66 109.88 103.46V111.14L109.87 111.13Z" fill="black"/>
<path d="M122.61 123.22C122 122.91 121.96 122.74 121.96 121.56C121.96 119.38 122.13 117.63 122.18 116.94C122.22 116.46 122.31 116.24 122.53 116.24C122.79 116.24 122.84 116.37 122.84 116.72C122.84 117.11 122.84 117.72 122.97 118.33C123.62 121.56 126.5 122.78 129.43 122.78C133.62 122.78 135.67 119.77 135.67 116.98C135.67 113.97 134.4 112.22 130.65 109.13L128.69 107.52C124.07 103.72 123.02 101.02 123.02 98.05C123.02 93.38 126.51 90.2 132.05 90.2C133.75 90.2 135.02 90.37 136.11 90.64C136.94 90.81 137.29 90.86 137.64 90.86C137.99 90.86 138.08 90.95 138.08 91.17C138.08 91.39 137.91 92.83 137.91 95.79C137.91 96.49 137.82 96.79 137.6 96.79C137.34 96.79 137.29 96.57 137.25 96.22C137.21 95.7 136.94 94.52 136.68 94.04C136.42 93.56 135.24 91.73 131.23 91.73C128.22 91.73 125.86 93.61 125.86 96.79C125.86 99.28 126.99 100.85 131.18 104.12L132.4 105.08C137.55 109.14 138.77 111.84 138.77 115.33C138.77 117.12 138.07 120.43 135.06 122.57C133.18 123.88 130.83 124.4 128.47 124.4C126.42 124.4 124.41 124.09 122.62 123.22H122.61Z" fill="black"/>
<path d="M150.27 103.45C150.27 96.64 150.27 95.42 150.18 94.03C150.09 92.55 149.74 91.85 148.3 91.54C147.95 91.45 147.21 91.41 146.82 91.41C146.65 91.41 146.47 91.32 146.47 91.15C146.47 90.89 146.69 90.8 147.17 90.8C149.13 90.8 151.75 90.93 152.1 90.93C153.06 90.93 155.59 90.8 157.6 90.8C163.05 90.8 165.02 92.63 165.71 93.29C166.67 94.21 167.89 96.17 167.89 98.48C167.89 104.67 163.35 108.86 157.16 108.86C156.94 108.86 156.46 108.86 156.24 108.82C156.02 108.82 155.76 108.73 155.76 108.51C155.76 108.16 156.02 108.12 156.94 108.12C161.17 108.12 164.49 105.02 164.49 101.01C164.49 99.57 164.36 96.65 162.05 94.29C159.74 91.93 157.08 92.11 156.07 92.11C155.33 92.11 154.59 92.2 154.19 92.37C153.93 92.46 153.84 92.76 153.84 93.2V111.13C153.84 115.32 153.84 118.76 154.06 120.6C154.19 121.87 154.45 122.82 155.76 123C156.37 123.09 157.33 123.17 157.72 123.17C157.98 123.17 158.07 123.3 158.07 123.43C158.07 123.65 157.85 123.78 157.37 123.78C154.97 123.78 152.22 123.65 152 123.65C151.87 123.65 149.12 123.78 147.81 123.78C147.33 123.78 147.11 123.69 147.11 123.43C147.11 123.3 147.2 123.17 147.46 123.17C147.85 123.17 148.38 123.08 148.77 123C149.64 122.83 149.86 121.87 150.04 120.6C150.26 118.77 150.26 115.32 150.26 111.13V103.45H150.27Z" fill="black"/>
<path d="M182.59 91.89C183.11 90.45 183.29 90.19 183.55 90.19C183.81 90.19 183.99 90.41 184.51 91.76C185.16 93.42 192.01 111.44 194.67 118.07C196.24 121.95 197.51 122.65 198.42 122.91C199.07 123.13 199.73 123.17 200.16 123.17C200.42 123.17 200.6 123.21 200.6 123.43C200.6 123.69 200.21 123.78 199.73 123.78C199.08 123.78 195.89 123.78 192.88 123.69C192.05 123.65 191.57 123.65 191.57 123.38C191.57 123.21 191.7 123.12 191.88 123.07C192.14 122.98 192.4 122.59 192.14 121.89L188.08 111.16C187.99 110.99 187.91 110.9 187.69 110.9H178.31C178.09 110.9 177.96 111.03 177.87 111.25L175.25 118.97C174.86 120.06 174.64 121.11 174.64 121.89C174.64 122.76 175.56 123.16 176.3 123.16H176.74C177.05 123.16 177.18 123.25 177.18 123.42C177.18 123.68 176.92 123.77 176.53 123.77C175.48 123.77 173.61 123.64 173.13 123.64C172.65 123.64 170.25 123.77 168.2 123.77C167.63 123.77 167.37 123.68 167.37 123.42C167.37 123.25 167.54 123.16 167.76 123.16C168.07 123.16 168.68 123.12 169.03 123.07C171.04 122.81 171.91 121.15 172.69 118.97L182.59 91.88V91.89ZM187.13 109.34C187.35 109.34 187.35 109.21 187.3 109.03L183.16 97.25C182.94 96.6 182.72 96.6 182.51 97.25L178.67 109.03C178.58 109.25 178.67 109.34 178.8 109.34H187.13Z" fill="black"/>
<path d="M208.02 117.85C208.11 121.43 208.54 122.56 209.72 122.91C210.55 123.13 211.51 123.17 211.9 123.17C212.12 123.17 212.25 123.26 212.25 123.43C212.25 123.69 211.99 123.78 211.46 123.78C208.97 123.78 207.23 123.65 206.84 123.65C206.45 123.65 204.62 123.78 202.65 123.78C202.21 123.78 201.95 123.74 201.95 123.43C201.95 123.26 202.08 123.17 202.3 123.17C202.65 123.17 203.43 123.13 204.09 122.91C205.18 122.6 205.4 121.34 205.4 117.37L205.44 92.37C205.44 90.67 205.57 90.19 205.92 90.19C206.27 90.19 207.01 91.15 207.45 91.59C208.1 92.33 214.6 99.36 221.32 106.55C225.64 111.17 230.39 116.5 231.79 117.94L231.31 95.78C231.27 92.94 230.96 91.98 229.61 91.64C228.82 91.47 227.82 91.42 227.47 91.42C227.16 91.42 227.12 91.29 227.12 91.11C227.12 90.85 227.47 90.8 227.99 90.8C229.95 90.8 232.05 90.93 232.53 90.93C233.01 90.93 234.45 90.8 236.24 90.8C236.72 90.8 237.03 90.84 237.03 91.11C237.03 91.28 236.86 91.42 236.55 91.42C236.33 91.42 236.03 91.42 235.5 91.55C234.06 91.86 233.89 92.82 233.89 95.43L233.8 120.99C233.8 123.87 233.71 124.09 233.41 124.09C233.06 124.09 232.54 123.61 230.23 121.3C229.75 120.86 223.47 114.45 218.84 109.48C213.78 104.03 208.85 98.53 207.45 96.96L208.02 117.86V117.85Z" fill="black"/>
<path d="M248.16 103.45C248.16 96.64 248.16 95.42 248.07 94.03C247.98 92.55 247.63 91.85 246.19 91.54C245.84 91.45 245.1 91.41 244.71 91.41C244.54 91.41 244.36 91.32 244.36 91.15C244.36 90.89 244.58 90.8 245.06 90.8C247.02 90.8 249.77 90.93 249.99 90.93C250.51 90.93 253.26 90.8 255.88 90.8C260.2 90.8 268.18 90.41 273.37 95.77C275.55 98.04 277.6 101.66 277.6 106.85C277.6 112.35 275.33 116.58 272.89 119.15C271.01 121.11 267.09 124.17 259.67 124.17C257.79 124.17 255.48 124.04 253.61 123.91C251.69 123.78 250.21 123.65 249.99 123.65C249.9 123.65 249.16 123.65 248.24 123.69C247.37 123.69 246.36 123.78 245.71 123.78C245.23 123.78 245.01 123.69 245.01 123.43C245.01 123.3 245.1 123.17 245.36 123.17C245.75 123.17 246.28 123.08 246.67 123C247.54 122.83 247.76 121.87 247.94 120.6C248.16 118.77 248.16 115.32 248.16 111.13V103.45V103.45ZM251.82 108.16C251.82 112.78 251.86 116.8 251.91 117.63C251.95 118.72 252.04 120.47 252.39 120.95C252.96 121.78 254.66 122.7 259.81 122.7C263.87 122.7 267.62 121.22 270.19 118.64C272.46 116.42 273.68 112.23 273.68 108.21C273.68 102.67 271.28 99.09 269.49 97.22C265.39 92.9 260.42 92.29 255.22 92.29C254.35 92.29 252.73 92.42 252.38 92.6C251.99 92.77 251.86 92.99 251.86 93.47C251.82 94.95 251.82 99.4 251.82 102.76V108.17V108.16Z" fill="black"/>
<path d="M90.16 150L-8 149L90.16 148V150Z" fill="#005D9E"/>
<path d="M106.054 139.544C106.069 139.515 106.054 139.485 106.01 139.456C105.981 139.412 105.951 139.405 105.922 139.434C105.643 139.551 105.313 139.632 104.932 139.676C104.565 139.72 104.191 139.742 103.81 139.742C103.649 139.742 103.487 139.742 103.326 139.742C103.179 139.727 103.033 139.72 102.886 139.72C102.754 139.72 102.622 139.72 102.49 139.72C102.373 139.705 102.263 139.698 102.16 139.698H100.598C99.2633 139.698 97.9287 139.676 96.594 139.632C96.55 139.632 96.5207 139.654 96.506 139.698C96.4913 139.727 96.506 139.757 96.55 139.786C96.7407 139.889 96.9093 139.962 97.056 140.006C97.2027 140.05 97.3347 140.087 97.452 140.116C97.584 140.145 97.7013 140.182 97.804 140.226C97.9213 140.255 98.0167 140.314 98.09 140.402C98.178 140.475 98.244 140.585 98.288 140.732C98.332 140.879 98.354 141.069 98.354 141.304V153.734C98.354 154.086 98.3467 154.379 98.332 154.614C98.3173 154.849 98.266 155.047 98.178 155.208C98.09 155.355 97.9433 155.479 97.738 155.582C97.5327 155.67 97.2393 155.743 96.858 155.802C96.814 155.817 96.792 155.853 96.792 155.912C96.8067 155.956 96.836 155.978 96.88 155.978H97.166C97.606 155.978 98.0387 155.956 98.464 155.912C98.6693 155.883 98.86 155.861 99.036 155.846C99.2267 155.831 99.4247 155.824 99.63 155.824C100.026 155.824 100.437 155.846 100.862 155.89C101.067 155.919 101.273 155.941 101.478 155.956C101.683 155.971 101.889 155.978 102.094 155.978H102.292V155.802C102.028 155.817 101.771 155.765 101.522 155.648C101.287 155.516 101.082 155.347 100.906 155.142C100.73 154.937 100.591 154.709 100.488 154.46C100.385 154.196 100.334 153.932 100.334 153.668V147.684H102.864C103.495 147.684 103.986 147.816 104.338 148.08C104.69 148.329 104.859 148.784 104.844 149.444C104.844 149.488 104.866 149.517 104.91 149.532C104.969 149.532 105.005 149.51 105.02 149.466C105.137 148.953 105.233 148.432 105.306 147.904C105.379 147.361 105.431 146.819 105.46 146.276C105.46 146.232 105.438 146.203 105.394 146.188C105.365 146.173 105.335 146.181 105.306 146.21C105.189 146.327 105.035 146.452 104.844 146.584C104.668 146.716 104.507 146.782 104.36 146.782H100.334V140.842C100.569 140.842 100.803 140.827 101.038 140.798C101.273 140.769 101.5 140.739 101.72 140.71H101.698C101.962 140.681 102.219 140.651 102.468 140.622C102.732 140.593 102.996 140.578 103.26 140.578C103.905 140.578 104.411 140.717 104.778 140.996C105.145 141.26 105.328 141.729 105.328 142.404C105.328 142.448 105.35 142.477 105.394 142.492C105.453 142.492 105.489 142.47 105.504 142.426C105.592 142.001 105.673 141.583 105.746 141.172C105.834 140.761 105.915 140.343 105.988 139.918L106.054 139.544ZM124.082 148.322C124.082 147.046 123.848 145.858 123.378 144.758C122.924 143.643 122.286 142.675 121.464 141.854C120.658 141.033 119.704 140.387 118.604 139.918C117.504 139.449 116.316 139.214 115.04 139.214C114.982 139.214 114.916 139.214 114.842 139.214C114.784 139.214 114.725 139.221 114.666 139.236C113.258 139.529 112.07 139.911 111.102 140.38C110.134 140.835 109.35 141.429 108.748 142.162C108.147 142.881 107.714 143.761 107.45 144.802C107.186 145.843 107.054 147.083 107.054 148.52C107.054 149.165 107.179 149.803 107.428 150.434C107.678 151.065 108.015 151.666 108.44 152.238C108.88 152.81 109.379 153.345 109.936 153.844C110.508 154.343 111.11 154.775 111.74 155.142C112.371 155.509 113.016 155.795 113.676 156C114.336 156.205 114.974 156.308 115.59 156.308C116.72 156.308 117.798 156.11 118.824 155.714C119.851 155.318 120.753 154.768 121.53 154.064C122.308 153.345 122.924 152.502 123.378 151.534C123.848 150.551 124.082 149.481 124.082 148.322ZM122.168 148.278C122.168 149.231 122.029 150.141 121.75 151.006C121.486 151.857 121.083 152.612 120.54 153.272C120.012 153.917 119.352 154.438 118.56 154.834C117.783 155.215 116.888 155.406 115.876 155.406C114.791 155.406 113.823 155.164 112.972 154.68C112.136 154.181 111.425 153.543 110.838 152.766C110.266 151.989 109.826 151.109 109.518 150.126C109.225 149.143 109.078 148.161 109.078 147.178C109.078 146.21 109.218 145.301 109.496 144.45C109.775 143.585 110.186 142.837 110.728 142.206C111.271 141.561 111.938 141.055 112.73 140.688C113.522 140.307 114.432 140.116 115.458 140.116C116.544 140.116 117.504 140.358 118.34 140.842C119.176 141.326 119.873 141.957 120.43 142.734C121.002 143.511 121.435 144.384 121.728 145.352C122.022 146.32 122.168 147.295 122.168 148.278ZM141.382 155.802L141.338 155.626C140.708 155.699 140.099 155.597 139.512 155.318C138.94 155.025 138.383 154.629 137.84 154.13C137.312 153.631 136.806 153.067 136.322 152.436C135.838 151.805 135.376 151.189 134.936 150.588C134.643 150.192 134.357 149.803 134.078 149.422C133.8 149.041 133.558 148.733 133.352 148.498C133.675 148.19 133.99 147.853 134.298 147.486C134.621 147.105 134.9 146.701 135.134 146.276C135.384 145.851 135.582 145.411 135.728 144.956C135.875 144.487 135.948 144.017 135.948 143.548C135.948 142.829 135.809 142.221 135.53 141.722C135.252 141.223 134.878 140.82 134.408 140.512C133.954 140.189 133.433 139.955 132.846 139.808C132.26 139.661 131.658 139.588 131.042 139.588C130.793 139.588 130.551 139.595 130.316 139.61C130.096 139.61 129.862 139.617 129.612 139.632C129.128 139.676 128.652 139.698 128.182 139.698C127.742 139.698 127.302 139.676 126.862 139.632C126.657 139.617 126.444 139.61 126.224 139.61C126.004 139.595 125.784 139.588 125.564 139.588H125.146C125.102 139.588 125.073 139.61 125.058 139.654C125.058 139.698 125.08 139.727 125.124 139.742C125.579 139.859 125.975 140.094 126.312 140.446C126.664 140.798 126.84 141.209 126.84 141.678V153.602C126.84 154.071 126.694 154.511 126.4 154.922C126.122 155.318 125.77 155.611 125.344 155.802C125.3 155.831 125.286 155.875 125.3 155.934C125.315 155.978 125.344 155.993 125.388 155.978C125.843 155.919 126.29 155.875 126.73 155.846C127.17 155.802 127.618 155.78 128.072 155.78C128.527 155.78 128.982 155.795 129.436 155.824C129.891 155.853 130.346 155.89 130.8 155.934V155.758C130.214 155.699 129.737 155.465 129.37 155.054C129.018 154.629 128.842 154.115 128.842 153.514V149.268C129.004 149.253 129.165 149.246 129.326 149.246C129.488 149.246 129.649 149.246 129.81 149.246C130.192 149.246 130.573 149.275 130.954 149.334C131.336 149.378 131.673 149.525 131.966 149.774C132.348 150.097 132.729 150.507 133.11 151.006C133.506 151.505 133.858 151.981 134.166 152.436C134.474 152.891 134.804 153.353 135.156 153.822C135.508 154.277 135.89 154.687 136.3 155.054C136.711 155.421 137.158 155.721 137.642 155.956C138.126 156.191 138.654 156.308 139.226 156.308C139.608 156.308 139.974 156.264 140.326 156.176C140.693 156.088 141.045 155.963 141.382 155.802ZM133.88 144.692C133.88 145.748 133.66 146.584 133.22 147.2C132.78 147.816 132.003 148.124 130.888 148.124C130.566 148.124 130.228 148.117 129.876 148.102C129.539 148.073 129.202 148.029 128.864 147.97V140.49C129.099 140.402 129.334 140.343 129.568 140.314C129.818 140.27 130.067 140.248 130.316 140.248C130.903 140.248 131.416 140.38 131.856 140.644C132.296 140.908 132.663 141.253 132.956 141.678C133.264 142.103 133.492 142.58 133.638 143.108C133.8 143.636 133.88 144.164 133.88 144.692ZM158.922 151.226C158.922 150.683 158.827 150.17 158.636 149.686C158.46 149.202 158.204 148.769 157.866 148.388C157.544 148.007 157.162 147.677 156.722 147.398C156.282 147.119 155.806 146.899 155.292 146.738C155.542 146.503 155.784 146.247 156.018 145.968C156.268 145.675 156.488 145.374 156.678 145.066C156.884 144.743 157.045 144.413 157.162 144.076C157.28 143.739 157.338 143.387 157.338 143.02C157.338 142.433 157.192 141.92 156.898 141.48C156.62 141.04 156.26 140.681 155.82 140.402C155.38 140.109 154.889 139.896 154.346 139.764C153.804 139.617 153.283 139.544 152.784 139.544C152.491 139.544 152.19 139.551 151.882 139.566C151.574 139.581 151.266 139.603 150.958 139.632C150.665 139.661 150.364 139.691 150.056 139.72C149.748 139.749 149.433 139.764 149.11 139.764C148.7 139.764 148.274 139.72 147.834 139.632C147.79 139.617 147.754 139.625 147.724 139.654C147.71 139.683 147.717 139.713 147.746 139.742C147.864 139.903 147.988 139.999 148.12 140.028C148.267 140.057 148.421 140.079 148.582 140.094C148.7 140.109 148.81 140.131 148.912 140.16C149.03 140.175 149.132 140.219 149.22 140.292C149.308 140.365 149.374 140.475 149.418 140.622C149.477 140.769 149.506 140.967 149.506 141.216V153.646C149.506 153.998 149.492 154.291 149.462 154.526C149.433 154.746 149.367 154.937 149.264 155.098C149.176 155.245 149.03 155.377 148.824 155.494C148.634 155.597 148.37 155.699 148.032 155.802C147.988 155.817 147.966 155.853 147.966 155.912C147.981 155.956 148.01 155.978 148.054 155.978C148.524 155.978 148.993 155.985 149.462 156C149.946 156 150.423 156.007 150.892 156.022C151.376 156.037 151.853 156.044 152.322 156.044C152.792 156.044 153.261 156.044 153.73 156.044C154.42 156.044 155.072 155.934 155.688 155.714C156.319 155.479 156.869 155.157 157.338 154.746C157.822 154.321 158.204 153.815 158.482 153.228C158.776 152.627 158.922 151.959 158.922 151.226ZM155.512 143.35C155.512 143.995 155.417 144.523 155.226 144.934C155.05 145.33 154.794 145.645 154.456 145.88C154.119 146.1 153.708 146.254 153.224 146.342C152.755 146.415 152.234 146.452 151.662 146.452H151.53V140.446C151.736 140.387 151.941 140.336 152.146 140.292C152.352 140.248 152.557 140.226 152.762 140.226C153.188 140.226 153.569 140.314 153.906 140.49C154.258 140.651 154.552 140.879 154.786 141.172C155.021 141.451 155.197 141.781 155.314 142.162C155.446 142.543 155.512 142.939 155.512 143.35ZM157.008 151.908C157.008 152.348 156.935 152.773 156.788 153.184C156.642 153.595 156.429 153.961 156.15 154.284C155.872 154.607 155.542 154.863 155.16 155.054C154.779 155.245 154.361 155.34 153.906 155.34C153.672 155.34 153.415 155.303 153.136 155.23C152.858 155.142 152.594 155.025 152.344 154.878C152.11 154.717 151.912 154.533 151.75 154.328C151.589 154.108 151.508 153.859 151.508 153.58V147.332H151.662C152.088 147.332 152.535 147.347 153.004 147.376C153.474 147.405 153.906 147.523 154.302 147.728C154.698 147.919 155.058 148.168 155.38 148.476C155.718 148.769 156.004 149.099 156.238 149.466C156.488 149.833 156.678 150.229 156.81 150.654C156.942 151.065 157.008 151.483 157.008 151.908ZM175.625 139.874L175.603 139.698H175.339C175.001 139.698 174.679 139.698 174.371 139.698C174.063 139.683 173.747 139.676 173.425 139.676H172.391C172.141 139.676 171.885 139.676 171.621 139.676C171.371 139.676 171.115 139.661 170.851 139.632C170.807 139.632 170.777 139.661 170.763 139.72C170.763 139.764 170.785 139.793 170.829 139.808C171.401 139.896 171.833 140.079 172.127 140.358C172.435 140.637 172.589 141.077 172.589 141.678C172.589 142.441 172.589 143.196 172.589 143.944C172.589 144.692 172.596 145.44 172.611 146.188C172.625 146.936 172.633 147.691 172.633 148.454C172.633 149.202 172.633 149.95 172.633 150.698C172.633 151.387 172.508 152.011 172.259 152.568C172.024 153.125 171.694 153.609 171.269 154.02C170.858 154.416 170.367 154.724 169.795 154.944C169.223 155.164 168.599 155.274 167.925 155.274C167.265 155.274 166.649 155.171 166.077 154.966C165.505 154.746 165.006 154.438 164.581 154.042C164.17 153.646 163.847 153.177 163.613 152.634C163.378 152.077 163.261 151.461 163.261 150.786C163.261 150.023 163.261 149.261 163.261 148.498C163.261 147.735 163.268 146.973 163.283 146.21C163.297 145.447 163.305 144.692 163.305 143.944C163.305 143.196 163.305 142.433 163.305 141.656C163.305 141.465 163.349 141.289 163.437 141.128C163.539 140.952 163.664 140.791 163.811 140.644C163.972 140.483 164.133 140.343 164.295 140.226C164.471 140.109 164.639 140.006 164.801 139.918C164.845 139.889 164.859 139.852 164.845 139.808C164.83 139.764 164.801 139.742 164.757 139.742C164.463 139.757 164.17 139.764 163.877 139.764C163.598 139.764 163.312 139.764 163.019 139.764C162.447 139.764 161.867 139.757 161.281 139.742C160.709 139.727 160.129 139.705 159.543 139.676C159.499 139.676 159.469 139.705 159.455 139.764C159.455 139.808 159.477 139.837 159.521 139.852C160.063 139.984 160.489 140.175 160.797 140.424C161.119 140.659 161.281 141.077 161.281 141.678C161.281 141.839 161.273 142.045 161.259 142.294C161.259 142.529 161.259 142.793 161.259 143.086C161.259 143.511 161.251 143.995 161.237 144.538C161.237 145.081 161.237 145.631 161.237 146.188C161.237 146.789 161.237 147.391 161.237 147.992C161.251 148.593 161.266 149.151 161.281 149.664C161.295 150.163 161.317 150.595 161.347 150.962C161.391 151.329 161.435 151.585 161.479 151.732C161.699 152.407 162.021 153.023 162.447 153.58C162.887 154.137 163.393 154.621 163.965 155.032C164.537 155.428 165.16 155.743 165.835 155.978C166.509 156.198 167.199 156.308 167.903 156.308C168.841 156.308 169.692 156.132 170.455 155.78C171.232 155.428 171.892 154.951 172.435 154.35C172.977 153.734 173.395 153.023 173.689 152.216C173.982 151.409 174.129 150.551 174.129 149.642V141.656C174.129 141.231 174.268 140.849 174.547 140.512C174.825 140.16 175.185 139.947 175.625 139.874ZM185.091 151.666C185.091 151.123 184.989 150.625 184.783 150.17C184.593 149.715 184.336 149.29 184.013 148.894C183.691 148.498 183.324 148.124 182.913 147.772C182.503 147.405 182.092 147.046 181.681 146.694C181.3 146.386 180.926 146.078 180.559 145.77C180.207 145.447 179.892 145.125 179.613 144.802C179.349 144.465 179.129 144.127 178.953 143.79C178.792 143.438 178.711 143.064 178.711 142.668C178.711 142.287 178.777 141.935 178.909 141.612C179.056 141.289 179.247 141.018 179.481 140.798C179.731 140.563 180.017 140.38 180.339 140.248C180.677 140.116 181.036 140.05 181.417 140.05C181.784 140.05 182.114 140.123 182.407 140.27C182.715 140.402 182.979 140.585 183.199 140.82C183.434 141.04 183.625 141.304 183.771 141.612C183.933 141.92 184.05 142.25 184.123 142.602C184.138 142.646 184.167 142.668 184.211 142.668C184.27 142.653 184.299 142.624 184.299 142.58C184.299 142.551 184.299 142.529 184.299 142.514C184.314 142.485 184.321 142.455 184.321 142.426C184.395 141.957 184.453 141.487 184.497 141.018C184.556 140.549 184.607 140.079 184.651 139.61C184.651 139.551 184.629 139.522 184.585 139.522C183.911 139.331 183.192 139.236 182.429 139.236C181.872 139.236 181.263 139.309 180.603 139.456C179.958 139.588 179.357 139.808 178.799 140.116C178.242 140.424 177.773 140.82 177.391 141.304C177.01 141.788 176.819 142.367 176.819 143.042C176.819 143.482 176.922 143.922 177.127 144.362C177.333 144.802 177.597 145.235 177.919 145.66C178.242 146.085 178.609 146.503 179.019 146.914C179.43 147.31 179.841 147.706 180.251 148.102C180.647 148.469 181.036 148.843 181.417 149.224C181.799 149.605 182.136 149.987 182.429 150.368C182.737 150.749 182.979 151.138 183.155 151.534C183.346 151.915 183.441 152.289 183.441 152.656C183.441 153.052 183.339 153.419 183.133 153.756C182.943 154.079 182.693 154.357 182.385 154.592C182.077 154.812 181.733 154.988 181.351 155.12C180.97 155.237 180.596 155.296 180.229 155.296C179.789 155.296 179.386 155.237 179.019 155.12C178.653 154.988 178.33 154.805 178.051 154.57C177.773 154.335 177.553 154.042 177.391 153.69C177.245 153.338 177.171 152.935 177.171 152.48V152.238C177.171 152.194 177.142 152.172 177.083 152.172C177.039 152.157 177.01 152.172 176.995 152.216C176.966 152.333 176.937 152.458 176.907 152.59C176.893 152.707 176.871 152.825 176.841 152.942C176.783 153.162 176.724 153.389 176.665 153.624C176.621 153.859 176.599 154.108 176.599 154.372C176.599 154.739 176.68 155.047 176.841 155.296C177.017 155.531 177.237 155.729 177.501 155.89C177.765 156.037 178.059 156.139 178.381 156.198C178.704 156.271 179.019 156.308 179.327 156.308C179.943 156.308 180.589 156.198 181.263 155.978C181.953 155.758 182.576 155.443 183.133 155.032C183.705 154.621 184.175 154.137 184.541 153.58C184.908 153.008 185.091 152.37 185.091 151.666ZM191.662 155.956V155.78C190.944 155.707 190.438 155.501 190.144 155.164C189.851 154.827 189.704 154.284 189.704 153.536V141.26C189.704 140.996 189.741 140.791 189.814 140.644C189.888 140.483 189.99 140.358 190.122 140.27C190.254 140.167 190.408 140.087 190.584 140.028C190.775 139.969 190.98 139.918 191.2 139.874C191.244 139.859 191.259 139.823 191.244 139.764C191.23 139.705 191.2 139.683 191.156 139.698C190.76 139.757 190.357 139.801 189.946 139.83C189.55 139.845 189.147 139.852 188.736 139.852C187.842 139.852 186.969 139.808 186.118 139.72C186.074 139.72 186.052 139.749 186.052 139.808C186.052 139.852 186.074 139.881 186.118 139.896C186.544 139.955 186.91 140.079 187.218 140.27C187.541 140.461 187.702 140.798 187.702 141.282V153.624C187.702 154.695 187.204 155.421 186.206 155.802C186.162 155.831 186.14 155.868 186.14 155.912C186.155 155.956 186.184 155.978 186.228 155.978C186.786 155.963 187.343 155.956 187.9 155.956C188.472 155.941 189.037 155.934 189.594 155.934C189.932 155.934 190.269 155.934 190.606 155.934C190.958 155.934 191.31 155.941 191.662 155.956ZM210.051 139.896L210.029 139.72C209.97 139.72 209.882 139.72 209.765 139.72C209.647 139.705 209.552 139.698 209.479 139.698C209.332 139.669 209.178 139.669 209.017 139.698C208.855 139.713 208.701 139.727 208.555 139.742L207.785 139.808C207.359 139.837 206.934 139.83 206.509 139.786C206.083 139.727 205.658 139.676 205.233 139.632C205.189 139.617 205.152 139.632 205.123 139.676C205.108 139.705 205.115 139.735 205.145 139.764C205.247 139.852 205.365 139.911 205.497 139.94C205.629 139.955 205.761 139.977 205.893 140.006C206.039 140.035 206.186 140.065 206.333 140.094C206.479 140.123 206.611 140.197 206.729 140.314C206.861 140.417 206.963 140.578 207.037 140.798C207.11 141.003 207.147 141.289 207.147 141.656C207.147 143.489 207.169 145.315 207.213 147.134C207.257 148.967 207.279 150.793 207.279 152.612V152.788C205.211 150.456 203.15 148.19 201.097 145.99C199.043 143.775 196.931 141.553 194.761 139.324C194.731 139.295 194.687 139.295 194.629 139.324C194.555 139.383 194.497 139.603 194.453 139.984C194.423 140.351 194.394 140.827 194.365 141.414C194.35 142.001 194.335 142.668 194.321 143.416C194.321 144.164 194.321 144.941 194.321 145.748C194.321 146.936 194.321 148.102 194.321 149.246C194.335 150.39 194.35 151.365 194.365 152.172C194.379 152.553 194.387 152.883 194.387 153.162C194.387 153.441 194.387 153.646 194.387 153.778C194.387 154.042 194.357 154.262 194.299 154.438C194.255 154.599 194.189 154.739 194.101 154.856C194.013 154.959 193.91 155.047 193.793 155.12C193.675 155.179 193.551 155.245 193.419 155.318C193.301 155.391 193.184 155.465 193.067 155.538C192.949 155.611 192.817 155.707 192.671 155.824C192.641 155.853 192.634 155.89 192.649 155.934C192.678 155.978 192.707 155.993 192.737 155.978C193.118 155.919 193.499 155.868 193.881 155.824C194.262 155.78 194.636 155.758 195.003 155.758C195.281 155.758 195.553 155.773 195.817 155.802C196.095 155.817 196.367 155.839 196.631 155.868C196.836 155.897 197.041 155.919 197.247 155.934C197.452 155.949 197.657 155.963 197.863 155.978C197.907 155.978 197.929 155.963 197.929 155.934C197.943 155.89 197.936 155.853 197.907 155.824C197.716 155.677 197.533 155.582 197.357 155.538C197.181 155.479 197.012 155.435 196.851 155.406C196.704 155.377 196.565 155.34 196.433 155.296C196.315 155.252 196.205 155.179 196.103 155.076C196.015 154.959 195.941 154.797 195.883 154.592C195.839 154.372 195.817 154.071 195.817 153.69C195.817 152.927 195.802 152.172 195.773 151.424C195.743 150.676 195.714 149.921 195.685 149.158C195.655 148.381 195.626 147.618 195.597 146.87C195.567 146.107 195.553 145.352 195.553 144.604C195.553 144.325 195.56 144.054 195.575 143.79C195.604 143.526 195.633 143.255 195.663 142.976C195.956 143.299 196.213 143.599 196.433 143.878C196.667 144.142 196.931 144.443 197.225 144.78C198.955 146.76 200.715 148.725 202.505 150.676C204.294 152.627 206.186 154.46 208.181 156.176C208.21 156.205 208.239 156.205 208.269 156.176C208.313 156.161 208.335 156.139 208.335 156.11C208.452 154.761 208.525 153.426 208.555 152.106C208.599 150.771 208.621 149.437 208.621 148.102C208.621 147.486 208.621 146.885 208.621 146.298C208.621 145.697 208.613 145.095 208.599 144.494C208.584 143.893 208.577 143.291 208.577 142.69C208.577 142.089 208.577 141.487 208.577 140.886C208.577 140.739 208.613 140.615 208.687 140.512C208.775 140.395 208.885 140.307 209.017 140.248C209.149 140.175 209.288 140.116 209.435 140.072C209.596 140.028 209.743 139.984 209.875 139.94C209.904 139.925 209.933 139.918 209.963 139.918C209.992 139.918 210.021 139.911 210.051 139.896ZM220.719 153.14L220.565 153.118C220.404 153.793 220.067 154.313 219.553 154.68C219.055 155.047 218.461 155.23 217.771 155.23C217.507 155.23 217.236 155.201 216.957 155.142C216.679 155.083 216.407 154.995 216.143 154.878C215.894 154.761 215.659 154.614 215.439 154.438C215.219 154.262 215.036 154.049 214.889 153.8V147.684H215.791C215.938 147.684 216.158 147.684 216.451 147.684C216.759 147.684 217.067 147.699 217.375 147.728C217.698 147.743 217.991 147.779 218.255 147.838C218.534 147.897 218.717 147.977 218.805 148.08C218.923 148.197 219.003 148.315 219.047 148.432C219.091 148.549 219.128 148.667 219.157 148.784C219.187 148.901 219.223 149.019 219.267 149.136C219.311 149.239 219.37 149.327 219.443 149.4C219.473 149.429 219.502 149.437 219.531 149.422C219.575 149.407 219.597 149.378 219.597 149.334C219.627 149.055 219.656 148.784 219.685 148.52C219.729 148.241 219.773 147.955 219.817 147.662C219.847 147.442 219.876 147.215 219.905 146.98C219.935 146.745 219.964 146.511 219.993 146.276C219.993 146.188 219.957 146.159 219.883 146.188C219.766 146.217 219.649 146.254 219.531 146.298C219.414 146.342 219.297 146.393 219.179 146.452C219.018 146.525 218.857 146.599 218.695 146.672C218.549 146.731 218.424 146.76 218.321 146.76H214.867V140.534H217.221C217.881 140.534 218.424 140.651 218.849 140.886C219.275 141.106 219.517 141.575 219.575 142.294C219.575 142.338 219.597 142.367 219.641 142.382C219.7 142.382 219.737 142.36 219.751 142.316C219.766 142.243 219.781 142.184 219.795 142.14C219.81 142.081 219.825 142.015 219.839 141.942C219.927 141.561 220.008 141.165 220.081 140.754C220.169 140.343 220.235 139.933 220.279 139.522C220.279 139.419 220.235 139.397 220.147 139.456C220.059 139.5 219.883 139.537 219.619 139.566C219.37 139.595 219.062 139.617 218.695 139.632C218.343 139.647 217.94 139.661 217.485 139.676C217.045 139.676 216.591 139.676 216.121 139.676C215.505 139.676 214.86 139.676 214.185 139.676C213.511 139.661 212.931 139.647 212.447 139.632H211.105C211.076 139.632 211.054 139.647 211.039 139.676C211.025 139.705 211.032 139.735 211.061 139.764C211.223 139.881 211.369 139.969 211.501 140.028C211.648 140.072 211.795 140.109 211.941 140.138C212.073 140.167 212.191 140.204 212.293 140.248C212.411 140.277 212.513 140.329 212.601 140.402C212.689 140.475 212.755 140.578 212.799 140.71C212.858 140.827 212.887 140.996 212.887 141.216V153.646C212.887 153.91 212.865 154.174 212.821 154.438C212.792 154.687 212.726 154.915 212.623 155.12C212.521 155.311 212.374 155.472 212.183 155.604C211.993 155.721 211.736 155.787 211.413 155.802V155.978C211.883 155.949 212.352 155.934 212.821 155.934C213.291 155.934 213.76 155.934 214.229 155.934C214.699 155.934 215.161 155.941 215.615 155.956C216.07 155.956 216.532 155.956 217.001 155.956C217.471 155.971 217.94 155.978 218.409 155.978C218.879 155.978 219.348 155.978 219.817 155.978L220.147 155.912C220.191 155.868 220.213 155.853 220.213 155.868C220.272 155.868 220.301 155.839 220.301 155.78L220.367 155.252V155.274C220.426 154.922 220.477 154.57 220.521 154.218C220.58 153.851 220.646 153.492 220.719 153.14ZM230.187 151.666C230.187 151.123 230.084 150.625 229.879 150.17C229.688 149.715 229.432 149.29 229.109 148.894C228.786 148.498 228.42 148.124 228.009 147.772C227.598 147.405 227.188 147.046 226.777 146.694C226.396 146.386 226.022 146.078 225.655 145.77C225.303 145.447 224.988 145.125 224.709 144.802C224.445 144.465 224.225 144.127 224.049 143.79C223.888 143.438 223.807 143.064 223.807 142.668C223.807 142.287 223.873 141.935 224.005 141.612C224.152 141.289 224.342 141.018 224.577 140.798C224.826 140.563 225.112 140.38 225.435 140.248C225.772 140.116 226.132 140.05 226.513 140.05C226.88 140.05 227.21 140.123 227.503 140.27C227.811 140.402 228.075 140.585 228.295 140.82C228.53 141.04 228.72 141.304 228.867 141.612C229.028 141.92 229.146 142.25 229.219 142.602C229.234 142.646 229.263 142.668 229.307 142.668C229.366 142.653 229.395 142.624 229.395 142.58C229.395 142.551 229.395 142.529 229.395 142.514C229.41 142.485 229.417 142.455 229.417 142.426C229.49 141.957 229.549 141.487 229.593 141.018C229.652 140.549 229.703 140.079 229.747 139.61C229.747 139.551 229.725 139.522 229.681 139.522C229.006 139.331 228.288 139.236 227.525 139.236C226.968 139.236 226.359 139.309 225.699 139.456C225.054 139.588 224.452 139.808 223.895 140.116C223.338 140.424 222.868 140.82 222.487 141.304C222.106 141.788 221.915 142.367 221.915 143.042C221.915 143.482 222.018 143.922 222.223 144.362C222.428 144.802 222.692 145.235 223.015 145.66C223.338 146.085 223.704 146.503 224.115 146.914C224.526 147.31 224.936 147.706 225.347 148.102C225.743 148.469 226.132 148.843 226.513 149.224C226.894 149.605 227.232 149.987 227.525 150.368C227.833 150.749 228.075 151.138 228.251 151.534C228.442 151.915 228.537 152.289 228.537 152.656C228.537 153.052 228.434 153.419 228.229 153.756C228.038 154.079 227.789 154.357 227.481 154.592C227.173 154.812 226.828 154.988 226.447 155.12C226.066 155.237 225.692 155.296 225.325 155.296C224.885 155.296 224.482 155.237 224.115 155.12C223.748 154.988 223.426 154.805 223.147 154.57C222.868 154.335 222.648 154.042 222.487 153.69C222.34 153.338 222.267 152.935 222.267 152.48V152.238C222.267 152.194 222.238 152.172 222.179 152.172C222.135 152.157 222.106 152.172 222.091 152.216C222.062 152.333 222.032 152.458 222.003 152.59C221.988 152.707 221.966 152.825 221.937 152.942C221.878 153.162 221.82 153.389 221.761 153.624C221.717 153.859 221.695 154.108 221.695 154.372C221.695 154.739 221.776 155.047 221.937 155.296C222.113 155.531 222.333 155.729 222.597 155.89C222.861 156.037 223.154 156.139 223.477 156.198C223.8 156.271 224.115 156.308 224.423 156.308C225.039 156.308 225.684 156.198 226.359 155.978C227.048 155.758 227.672 155.443 228.229 155.032C228.801 154.621 229.27 154.137 229.637 153.58C230.004 153.008 230.187 152.37 230.187 151.666ZM239.64 151.666C239.64 151.123 239.537 150.625 239.332 150.17C239.141 149.715 238.885 149.29 238.562 148.894C238.239 148.498 237.873 148.124 237.462 147.772C237.051 147.405 236.641 147.046 236.23 146.694C235.849 146.386 235.475 146.078 235.108 145.77C234.756 145.447 234.441 145.125 234.162 144.802C233.898 144.465 233.678 144.127 233.502 143.79C233.341 143.438 233.26 143.064 233.26 142.668C233.26 142.287 233.326 141.935 233.458 141.612C233.605 141.289 233.795 141.018 234.03 140.798C234.279 140.563 234.565 140.38 234.888 140.248C235.225 140.116 235.585 140.05 235.966 140.05C236.333 140.05 236.663 140.123 236.956 140.27C237.264 140.402 237.528 140.585 237.748 140.82C237.983 141.04 238.173 141.304 238.32 141.612C238.481 141.92 238.599 142.25 238.672 142.602C238.687 142.646 238.716 142.668 238.76 142.668C238.819 142.653 238.848 142.624 238.848 142.58C238.848 142.551 238.848 142.529 238.848 142.514C238.863 142.485 238.87 142.455 238.87 142.426C238.943 141.957 239.002 141.487 239.046 141.018C239.105 140.549 239.156 140.079 239.2 139.61C239.2 139.551 239.178 139.522 239.134 139.522C238.459 139.331 237.741 139.236 236.978 139.236C236.421 139.236 235.812 139.309 235.152 139.456C234.507 139.588 233.905 139.808 233.348 140.116C232.791 140.424 232.321 140.82 231.94 141.304C231.559 141.788 231.368 142.367 231.368 143.042C231.368 143.482 231.471 143.922 231.676 144.362C231.881 144.802 232.145 145.235 232.468 145.66C232.791 146.085 233.157 146.503 233.568 146.914C233.979 147.31 234.389 147.706 234.8 148.102C235.196 148.469 235.585 148.843 235.966 149.224C236.347 149.605 236.685 149.987 236.978 150.368C237.286 150.749 237.528 151.138 237.704 151.534C237.895 151.915 237.99 152.289 237.99 152.656C237.99 153.052 237.887 153.419 237.682 153.756C237.491 154.079 237.242 154.357 236.934 154.592C236.626 154.812 236.281 154.988 235.9 155.12C235.519 155.237 235.145 155.296 234.778 155.296C234.338 155.296 233.935 155.237 233.568 155.12C233.201 154.988 232.879 154.805 232.6 154.57C232.321 154.335 232.101 154.042 231.94 153.69C231.793 153.338 231.72 152.935 231.72 152.48V152.238C231.72 152.194 231.691 152.172 231.632 152.172C231.588 152.157 231.559 152.172 231.544 152.216C231.515 152.333 231.485 152.458 231.456 152.59C231.441 152.707 231.419 152.825 231.39 152.942C231.331 153.162 231.273 153.389 231.214 153.624C231.17 153.859 231.148 154.108 231.148 154.372C231.148 154.739 231.229 155.047 231.39 155.296C231.566 155.531 231.786 155.729 232.05 155.89C232.314 156.037 232.607 156.139 232.93 156.198C233.253 156.271 233.568 156.308 233.876 156.308C234.492 156.308 235.137 156.198 235.812 155.978C236.501 155.758 237.125 155.443 237.682 155.032C238.254 154.621 238.723 154.137 239.09 153.58C239.457 153.008 239.64 152.37 239.64 151.666Z" fill="#424242"/>
<path d="M247.69 148L345.85 149L247.69 150V148Z" fill="#005D9E"/>
</g>
<defs>
<linearGradient id="paint0_linear_1_2" x1="213.18" y1="52.4" x2="213.21" y2="52.4" gradientUnits="userSpaceOnUse">
<stop stop-color="#238CCC"/>
<stop offset="1" stop-color="#131742"/>
</linearGradient>
<linearGradient id="paint1_linear_1_2" x1="164.72" y1="62.73" x2="172.8" y2="62.73" gradientUnits="userSpaceOnUse">
<stop stop-color="#238CCC"/>
<stop offset="1" stop-color="#131742"/>
</linearGradient>
<linearGradient id="paint2_linear_1_2" x1="159.7" y1="39.62" x2="177.83" y2="39.62" gradientUnits="userSpaceOnUse">
<stop stop-color="#238CCC"/>
<stop offset="1" stop-color="#131742"/>
</linearGradient>
<linearGradient id="paint3_linear_1_2" x1="145.5" y1="44.49" x2="166.07" y2="44.49" gradientUnits="userSpaceOnUse">
<stop stop-color="#238CCC"/>
<stop offset="1" stop-color="#131742"/>
</linearGradient>
<linearGradient id="paint4_linear_1_2" x1="125" y1="52.31" x2="147.3" y2="52.31" gradientUnits="userSpaceOnUse">
<stop stop-color="#238CCC"/>
<stop offset="1" stop-color="#131742"/>
</linearGradient>
<linearGradient id="paint5_linear_1_2" x1="142" y1="24.21" x2="167.27" y2="24.21" gradientUnits="userSpaceOnUse">
<stop stop-color="#238CCC"/>
<stop offset="1" stop-color="#131742"/>
</linearGradient>
<linearGradient id="paint6_linear_1_2" x1="171.46" y1="44.49" x2="192.03" y2="44.49" gradientUnits="userSpaceOnUse">
<stop stop-color="#238CCC"/>
<stop offset="1" stop-color="#131742"/>
</linearGradient>
<linearGradient id="paint7_linear_1_2" x1="166.412" y1="71.749" x2="171.112" y2="71.749" gradientUnits="userSpaceOnUse">
<stop stop-color="#238CCC"/>
<stop offset="1" stop-color="#131742"/>
</linearGradient>
<linearGradient id="paint8_linear_1_2" x1="170.21" y1="24.05" x2="195.52" y2="24.05" gradientUnits="userSpaceOnUse">
<stop stop-color="#238CCC"/>
<stop offset="1" stop-color="#131742"/>
</linearGradient>
<linearGradient id="paint9_linear_1_2" x1="167.693" y1="77.8012" x2="169.823" y2="77.8012" gradientUnits="userSpaceOnUse">
<stop stop-color="#238CCC"/>
<stop offset="1" stop-color="#131742"/>
</linearGradient>
<linearGradient id="paint10_linear_1_2" x1="171.15" y1="53.47" x2="203.02" y2="53.47" gradientUnits="userSpaceOnUse">
<stop stop-color="#238CCC"/>
<stop offset="1" stop-color="#131742"/>
</linearGradient>
<linearGradient id="paint11_linear_1_2" x1="134.4" y1="53.45" x2="166.27" y2="53.45" gradientUnits="userSpaceOnUse">
<stop stop-color="#238CCC"/>
<stop offset="1" stop-color="#131742"/>
</linearGradient>
<linearGradient id="paint12_linear_1_2" x1="156.95" y1="10.46" x2="180.47" y2="10.46" gradientUnits="userSpaceOnUse">
<stop stop-color="#238CCC"/>
<stop offset="1" stop-color="#131742"/>
</linearGradient>
<linearGradient id="paint13_linear_1_2" x1="130.75" y1="31.9" x2="141.64" y2="31.9" gradientUnits="userSpaceOnUse">
<stop stop-color="#238CCC"/>
<stop offset="1" stop-color="#131742"/>
</linearGradient>
<linearGradient id="paint14_linear_1_2" x1="195.83" y1="31.77" x2="206.58" y2="31.77" gradientUnits="userSpaceOnUse">
<stop stop-color="#238CCC"/>
<stop offset="1" stop-color="#131742"/>
</linearGradient>
<linearGradient id="paint15_linear_1_2" x1="189.63" y1="52.49" x2="213.19" y2="52.49" gradientUnits="userSpaceOnUse">
<stop stop-color="#238CCC"/>
<stop offset="1" stop-color="#131742"/>
</linearGradient>
<clipPath id="clip0_1_2">
<rect width="360.85" height="161.44" fill="white"/>
</clipPath>
</defs>
</svg>
