<svg xmlns="http://www.w3.org/2000/svg" width="2000" height="604.524" viewBox="0 0 2000 604.524">
    <defs>
        <clipPath id="j0ss0idosa">
            <path data-name="Rectangle 157" style="fill:none" d="M0 0h2000v604.524H0z"/>
        </clipPath>
    </defs>
    <g data-name="Group 295">
        <g data-name="Group 294" style="clip-path:url(#j0ss0idosa)">
            <path data-name="Path 258" d="M1592.666 259.866c-387.156 130.64-689.622 9.331-782.378-27.994S669.138 101.231 463.46 110.563 189.224-32.519 11.778 6.362A79.851 79.851 0 0 0 0 9.923v594.6h2000v-382.66c-112.837-16.228-253.039-14.061-407.334 38" style="fill:#6ca0cb"/>
            <path data-name="Path 259" d="M1764.641 174.781c-202.906-15.506-270.6 68.924-370.779 100.232s-426.778 133.03-785.1-.433C359.969 181.912 122.147 230.349 0 268.618V593.17l1226.523 48.935H2000V129.56c-67.622 25.936-140.184 52.494-235.359 45.221" transform="translate(0 -37.581)" style="fill:#2872af"/>
            <path data-name="Path 260" d="M1929.487 130.78c-158.234-34.9-219.369 101.909-402.776 93.532S1300.152 299.7 1217.438 333.2s-352.429 142.392-697.665 25.128C296.627 282.533 106.541 324.551 0 363.747V640.8h2000V211.933c-14.182-43.21-36.548-73.662-70.511-81.153" transform="translate(0 -36.279)" style="fill:#0a599b"/>
        </g>
    </g>
</svg>
