<svg id="Group_142" data-name="Group 142" xmlns="http://www.w3.org/2000/svg" xmlns:xlink="http://www.w3.org/1999/xlink" width="380.926" height="140.323" viewBox="0 0 380.926 140.323">
  <defs>
    <clipPath id="clip-path">
      <rect id="Rectangle_79" data-name="Rectangle 79" width="380.926" height="140.323" fill="#fff"/>
    </clipPath>
  </defs>
  <g id="Group_141" data-name="Group 141" transform="translate(0 0)" clip-path="url(#clip-path)">
    <path id="Path_168" data-name="Path 168" d="M12.2,69.138c1.886-.388,2.163-1.5,2.217-4.051.168-6.045.223-14.587.223-24.017a.784.784,0,0,0-.5-.666c-.945-.166-4.828-.054-7.656-.054a2.673,2.673,0,0,0-2.051,1.277,44.74,44.74,0,0,0-2.108,5.434C2.054,47.229.057,46.729,0,46.4c.445-2.383,1-6.877,1.166-9.485,0-.166.72-.332.888-.223.886.5,2.108.777,4.659.777h25.9a.377.377,0,0,0,.277-.389V35.691c0-.166.111-.5.277-.5a19.745,19.745,0,0,0,4.382-.886c.111.054.332.166.332.389,0,.554-.054,3.105-.111,6.988-.054,3.771-.054,8.653-.054,10.039,0,.111.166.111.223.057,2.883-2.165,5.822-3.274,7.654-3.274,4.716,0,7.433,3.605,7.433,9.1,0,3.162.054,7.6.054,10.1a1.419,1.419,0,0,0,1,1.5,13.629,13.629,0,0,0,2.717.554,3.41,3.41,0,0,1-.277,2.22c-1.109-.054-3.717-.22-6.268-.166-1.774.054-4.491.111-5.214.166a3.372,3.372,0,0,1-.054-2.22c.777-.054,1.5-.223,2.163-.332,1-.223,1.109-.777,1.166-2.774.054-2.551.277-7.931-.168-10.484-.277-1.717-1.551-3.937-5.157-3.937a8.323,8.323,0,0,0-4.548,1.443,1.731,1.731,0,0,0-.668,1.331c0,3.825,0,10.15.111,11.759.057,1.831.168,2.217,1.388,2.606.666.111,1.22.28,2.331.389a3.391,3.391,0,0,1-.114,2.22c-.774,0-3.937-.166-6.045-.166-1.663,0-5.1.166-6.211.166a2.8,2.8,0,0,1-.057-2.22,17.554,17.554,0,0,0,2.5-.5c1-.334,1.22-.723,1.274-2.165.057-1.331.111-7.708.111-8.985,0-12.09-.111-15.033-.111-17.084-.054-.277-.22-.611-.443-.611-3.051-.054-10.873-.054-12.2,0-.168.057-.334.445-.334.611,0,8.376-.054,23.075.166,25.9.168,1,.334,1.72,1.665,2.108a25.02,25.02,0,0,0,4.048.72,2.828,2.828,0,0,1-.22,2.22c-3.051-.166-6.6-.166-8.876-.166-2.163,0-6.436.054-8.265.166a2.8,2.8,0,0,1,0-2.22,37.56,37.56,0,0,0,3.717-.609" transform="translate(0 54.545)" fill="#fff"/>
    <path id="Path_169" data-name="Path 169" d="M33.225,35.461c1.166,0,4.659.166,6.99.166,1.94,0,6.265-.111,6.931-.166.334.223.445,1.886.057,2.163-.666.168-1.774.332-2.163.443-.666.223-.557.777-.334,1.277,1.443,3.051,5.548,11.039,6.711,12.924a.451.451,0,0,0,.445-.057c1.943-3.048,5.768-10.148,6.711-12.2.334-.831.443-1.608-1-1.886-.777-.168-1.608-.277-2.885-.5a2.634,2.634,0,0,1,.223-2.163c1.774.054,4.491.166,6.545.166,3.105,0,4.491-.054,6.211-.166.389.111.443,1.943.111,2.163-.831.168-1.5.277-2.331.5-1.663.389-2.44,1-4.268,3.662C58.74,45.5,55.026,52.045,53.526,54.873a5.718,5.718,0,0,0-.554,2c0,1.717.054,4.048.111,6.931.054,2.554.388,3.217,1.72,3.551.943.223,2.551.388,4.048.611a2.96,2.96,0,0,1-.22,2.163c-1.611,0-4.605-.166-8.267-.166-4.657,0-7.542.166-8.985.166-.277-.223-.332-2,0-2.163A39.281,39.281,0,0,0,45.65,67.3c1.5-.389,1.943-1.111,1.943-2.94.109-2.717.054-3.939.054-6.379a7.282,7.282,0,0,0-.5-2.663c-1.109-2.608-4.271-8.431-6.656-12.7-1.94-3.44-2.44-3.994-4.768-4.605-.666-.166-1.388-.22-2.608-.388a2.675,2.675,0,0,1,.111-2.163" transform="translate(52.37 56.383)" fill="#fff"/>
    <path id="Path_170" data-name="Path 170" d="M52.163,43.224h0C50.72,44.112,49.335,46,49.335,50.1c0,6.656,3.383,10.87,7.654,10.87a4.752,4.752,0,0,0,3.274-1.163c1.274-1.054,2.108-3.217,2.108-6.77,0-6.542-3.219-10.536-7.656-10.536a4.551,4.551,0,0,0-2.551.72m15.475,7.988c0,4.548-1.774,8.153-5.214,10.427A14.538,14.538,0,0,1,55.6,63.747c-8.376,0-11.482-6.268-11.482-12.147a10.908,10.908,0,0,1,4.937-9.542,14.94,14.94,0,0,1,7.6-2.271c6.822,0,10.982,5.1,10.982,11.425" transform="translate(70.154 63.262)" fill="#fff"/>
    <path id="Path_171" data-name="Path 171" d="M59.641,47.33h0c0,3.274,1.443,6.768,5.271,6.768a3.751,3.751,0,0,0,2.44-.943,6.309,6.309,0,0,0,1.5-4.437c0-3.274-1.331-6.434-5.157-6.434-2.331,0-4.051,1.829-4.051,5.045M72.954,68.685h0a3.654,3.654,0,0,0-2.717-3.66,22.028,22.028,0,0,0-6.879-.831,4,4,0,0,0-2,.5c-2.051,1.334-2.883,2.608-2.883,3.994a4.29,4.29,0,0,0,1.663,3.44A8.542,8.542,0,0,0,65.909,73.9c4.937,0,7.045-2.72,7.045-5.216M70.791,41.008a8.3,8.3,0,0,0,3.105.5,4.128,4.128,0,0,0,3.385-1.331c.22-.057.886.389.943.5a8.029,8.029,0,0,1-1.331,3.383,2.5,2.5,0,0,1-2.165.888H73.454a.253.253,0,0,0-.166.166A11.847,11.847,0,0,1,73.565,47c0,3.994-1.5,5.879-3.385,7.322a11.478,11.478,0,0,1-5.822,2.274c-.111,0-1.22.111-1.331.111-.388.109-1.22.554-1.22,1.274,0,1,.94,1.5,2.383,1.608,2.94.223,7.376.445,9.319,1.111a5.683,5.683,0,0,1,3.774,5.491c0,3.548-2.442,7.154-6.991,9.373a14.95,14.95,0,0,1-6.6,1.5,10.891,10.891,0,0,1-7.1-2.108,6.1,6.1,0,0,1-2.22-7.319,32.575,32.575,0,0,1,5.159-4.051c.054,0,.054-.111,0-.111A5.01,5.01,0,0,1,56.2,60.2a3.865,3.865,0,0,1,.332-1.22c.831-.554,2.774-1.608,3.605-2.331a.2.2,0,0,0-.054-.277c-2.942-1-5.216-3.274-5.216-7.765a7.8,7.8,0,0,1,3.219-6.379,14.339,14.339,0,0,1,7.265-2.44,14.509,14.509,0,0,1,5.436,1.22" transform="translate(85.75 63.261)" fill="#fff"/>
    <path id="Path_172" data-name="Path 172" d="M75.8,52.266h0c-1.551.611-5.1,1.665-6.379,2.385a2.826,2.826,0,0,0-.666,1.831,3.545,3.545,0,0,0,3.885,3.605,5.252,5.252,0,0,0,2.663-.886,1.735,1.735,0,0,0,.72-1.388c.111-.72.111-4.271.111-5.271,0-.054-.166-.332-.334-.277m-.277-6.988a4.92,4.92,0,0,0-4.105-2.051,4.276,4.276,0,0,0-2.494.554c-.666.554-1.554,2.44-2.331,3.994-.22.277-2.217-.666-2.106-1.166.22-.943,1.109-3.494,1.551-3.828,2.385-1.551,6.1-2.994,7.545-2.994a6.773,6.773,0,0,1,5.822,3.051,9.917,9.917,0,0,1,1.388,5.6c0,2.828-.223,7.154-.223,9.485,0,1.277.5,2.051,2.163,2.051a7.453,7.453,0,0,0,2-.277,5.639,5.639,0,0,1-.277,2.165,7.325,7.325,0,0,1-4.825,1.886,3.047,3.047,0,0,1-3.051-1.611,4.635,4.635,0,0,1-.443-1.22c0-.054-.223-.111-.277-.054C72.7,62.8,70.647,63.75,68.927,63.75A5.031,5.031,0,0,1,65.765,62.2a7.194,7.194,0,0,1-1.94-4.991A6.939,6.939,0,0,1,65.1,53.654c2.108-1.054,8.376-2.385,10.65-3.551a1.422,1.422,0,0,0,.389-.554,3.452,3.452,0,0,0,.111-.943,6.06,6.06,0,0,0-.723-3.328" transform="translate(101.484 63.262)" fill="#fff"/>
    <path id="Path_173" data-name="Path 173" d="M76.121,35.461c1.109,0,4.714.166,7.654.166,3,0,6.436-.166,7.933-.166a3.211,3.211,0,0,1,0,2.163,21.966,21.966,0,0,0-3.274.5c-1.331.334-1.551,1-1.663,2.663-.166,2.385-.111,6.379-.111,11.259,0,5.159.054,10.373.166,12.316.057,1.72.334,2.494,2.108,2.94.834.166,2.108.386,3.717.609a3.091,3.091,0,0,1-.166,2.22c-1.22,0-5.214-.166-8.153-.166-3.274,0-7.379.166-8.376.166-.334-.166-.334-2-.054-2.22,1.5-.166,2.274-.277,3.105-.443,1.774-.445,2-1.22,2.163-2.331.223-1.606.166-4.88.166-13.976,0-4.659.057-7.822-.111-10.427-.111-1.5-.277-2.108-1.44-2.442a27.462,27.462,0,0,0-3.717-.666,3.231,3.231,0,0,1,.054-2.163" transform="translate(120.361 56.383)" fill="#fff"/>
    <path id="Path_174" data-name="Path 174" d="M85.879,60.677c.777-.166,1.166-.777,1.22-1.72.111-1.554.111-5.491.111-9.042V45.921c-.223-.774-1.22-1.551-3.16-2.44a2.248,2.248,0,0,1,.388-1.663,25.349,25.349,0,0,0,7.208-2.054c.111.057.334.277.334.445,0,.277-.057,2.217-.057,3.105,0,.111.277.111.334.054,2.385-2.051,5.268-3.548,7.433-3.548a6.658,6.658,0,0,1,5.657,2.994,12.1,12.1,0,0,1,1.554,6.656c0,3.274,0,8.265.111,9.985a1.485,1.485,0,0,0,.386.777,9.823,9.823,0,0,0,3.162.831,3.1,3.1,0,0,1-.223,2.22c-.774,0-2.717-.166-5.768-.166-2.44,0-4.1.166-5.545.166a3.054,3.054,0,0,1,0-2.22,8.9,8.9,0,0,0,2.274-.445c.72-.22.888-.72.888-2.717,0-3.66.054-7.876-.168-9.985a4.764,4.764,0,0,0-1.551-3.105,4.955,4.955,0,0,0-3.385-1.166,7.246,7.246,0,0,0-4.548,1.665,2.192,2.192,0,0,0-.611,1.831c0,3.771,0,9.316.111,11.924.057,1,.277,1.443,1.166,1.665a11.869,11.869,0,0,0,2.274.332,3.124,3.124,0,0,1-.223,2.22c-.831,0-2.494-.166-5.711-.166-2.331,0-5.159.166-5.714.166a3.066,3.066,0,0,1,0-2.22,17.2,17.2,0,0,0,2.051-.389" transform="translate(132.958 63.227)" fill="#fff"/>
    <path id="Path_175" data-name="Path 175" d="M110.249,46.775a2.778,2.778,0,0,1-2,.111c-.443-2.328-.831-3.383-1.831-4.105a4.746,4.746,0,0,0-2.94-.888,3.131,3.131,0,0,0-3.383,3.054c0,1.886,1.166,2.994,5.545,4.825,4.771,1.994,6.048,4.048,6.048,6.877,0,4.271-4.051,7.1-9.373,7.1a17.225,17.225,0,0,1-6.159-1.111,34.061,34.061,0,0,1-1.109-6.379,3.659,3.659,0,0,1,2.108-.666c.831,2.608,1.774,4.051,3.217,4.991a7.282,7.282,0,0,0,3.051.777c2.328,0,3.548-1.163,3.548-2.828,0-1.886-1-2.94-4.88-4.659-4.382-2-6.325-4.048-6.325-7.211,0-3.548,2.885-6.877,8.71-6.877a25.126,25.126,0,0,1,4.048.386c1,.168,1.831.334,2.385.391-.277,1.608-.5,3.714-.666,6.211" transform="translate(151.134 63.262)" fill="#fff"/>
    <path id="Path_176" data-name="Path 176" d="M110.708,48.248c-.054,0-.223.22-.223.277-.054,2.108-.054,5.934-.054,8.876a15.718,15.718,0,0,0,.388,4.6,3.419,3.419,0,0,0,3.551,2.331,6.333,6.333,0,0,0,3.714-.943,5.243,5.243,0,0,1-.332,2.383,7.709,7.709,0,0,1-5.825,2.442,5.728,5.728,0,0,1-5.325-2.885c-.777-1.443-.886-2.885-.886-6.434,0-3.274.054-7.876.054-10.1a.577.577,0,0,0-.388-.554l-3.217-.223a4.632,4.632,0,0,1,.554-2.274,18.751,18.751,0,0,0,2.774-.666.586.586,0,0,0,.277-.5V39.541a29.3,29.3,0,0,0,3.828-2.385,2.416,2.416,0,0,1,1.22-.111c-.054,1-.277,3.717-.277,7.542,0,.168.111.391.277.391,2.551,0,6.322-.168,7.376-.28a25.866,25.866,0,0,0-.609,3.605c-1.054,0-4.548-.054-6.879-.054" transform="translate(162.436 58.849)" fill="#fff"/>
    <path id="Path_177" data-name="Path 177" d="M117.275,41.295h0a6.289,6.289,0,0,1-2.883.166,3.791,3.791,0,0,1-1.72-2.551c-.057-.277,0-1.663.332-1.94a5.466,5.466,0,0,1,3.105-1.166,2.448,2.448,0,0,1,1.777.5,3.778,3.778,0,0,1,.609,1.829,4.35,4.35,0,0,1-1.22,3.162m4.382,28.288c-1.054,0-2.385-.166-6.156-.166-2.5,0-4.825.166-5.714.166a2.583,2.583,0,0,1-.057-2.217,13.244,13.244,0,0,0,2.5-.557c.834-.223.943-.666,1-1.72.111-1.386.111-4.437.111-7.376V52.168a1.759,1.759,0,0,0-.5-1.222,8.5,8.5,0,0,0-2.94-1.551,1.915,1.915,0,0,1,.332-1.72,34.226,34.226,0,0,0,7.988-1.665V56.05c0,3.051,0,6.6.057,8.985a1.679,1.679,0,0,0,1.109,1.831,19.031,19.031,0,0,0,2.551.5,3.093,3.093,0,0,1-.277,2.217" transform="translate(174.119 56.929)" fill="#fff"/>
    <path id="Path_178" data-name="Path 178" d="M123.173,48.248c-.054,0-.223.22-.223.277-.054,2.108-.054,5.934-.054,8.876a15.717,15.717,0,0,0,.389,4.6,3.419,3.419,0,0,0,3.551,2.331,6.333,6.333,0,0,0,3.714-.943,5.243,5.243,0,0,1-.332,2.383,7.709,7.709,0,0,1-5.825,2.442,5.728,5.728,0,0,1-5.325-2.885c-.777-1.443-.886-2.885-.886-6.434,0-3.274.054-7.876.054-10.1a.577.577,0,0,0-.388-.554l-3.217-.223a4.632,4.632,0,0,1,.554-2.274,18.753,18.753,0,0,0,2.774-.666.586.586,0,0,0,.277-.5V39.541a29.3,29.3,0,0,0,3.828-2.385,2.416,2.416,0,0,1,1.22-.111c-.054,1-.277,3.717-.277,7.542,0,.168.111.391.277.391,2.551,0,6.322-.168,7.376-.28a25.865,25.865,0,0,0-.609,3.605c-1.054,0-4.548-.054-6.879-.054" transform="translate(182.256 58.849)" fill="#fff"/>
    <path id="Path_179" data-name="Path 179" d="M122.282,40.746a49.466,49.466,0,0,0,8.319-.831,100.1,100.1,0,0,0-.386,11.093,33.091,33.091,0,0,0,.22,5.548c.445,1.774,1.831,3.051,4.548,3.051a7.1,7.1,0,0,0,4.548-1.777,1.634,1.634,0,0,0,.554-1.109c.057-.5.057-1.774.057-11.593a1.532,1.532,0,0,0-1.054-1.663c-.723-.223-1.943-.389-3.494-.666a3.511,3.511,0,0,1,.332-2.054,59.837,59.837,0,0,0,9.208-.666c-.109.888-.109,2.108-.166,3.994l-.111,13.756c.057.723.277,1.388.834,1.443a12.626,12.626,0,0,0,2.883-.111,4.159,4.159,0,0,1-.389,2.22,33.881,33.881,0,0,1-7.6,2.328c-.111,0-.277-.389-.331-.609-.057-.5-.168-2.22-.168-3,0-.111-.22-.166-.331-.111-3.217,2.663-5.657,3.551-7.433,3.551-5.6,0-6.822-3.771-6.822-7.488-.054-2.774.166-8.653,0-10.927a1.635,1.635,0,0,0-1.054-1.777,18.7,18.7,0,0,0-2.551-.5,4.357,4.357,0,0,1,.389-2.108" transform="translate(193.798 63.465)" fill="#fff"/>
    <path id="Path_180" data-name="Path 180" d="M140.65,48.248c-.057,0-.223.22-.223.277-.054,2.108-.054,5.934-.054,8.876a15.715,15.715,0,0,0,.389,4.6,3.418,3.418,0,0,0,3.548,2.331,6.336,6.336,0,0,0,3.717-.943,5.243,5.243,0,0,1-.332,2.383,7.709,7.709,0,0,1-5.825,2.442,5.728,5.728,0,0,1-5.325-2.885c-.777-1.443-.886-2.885-.886-6.434,0-3.274.054-7.876.054-10.1a.577.577,0,0,0-.389-.554l-3.217-.223a4.632,4.632,0,0,1,.554-2.274,18.751,18.751,0,0,0,2.774-.666.586.586,0,0,0,.277-.5V39.541a29.3,29.3,0,0,0,3.828-2.385,2.414,2.414,0,0,1,1.22-.111c-.054,1-.277,3.717-.277,7.542,0,.168.109.391.277.391,2.551,0,6.322-.168,7.376-.28a25.859,25.859,0,0,0-.609,3.605c-1.054,0-4.548-.054-6.879-.054" transform="translate(210.045 58.849)" fill="#fff"/>
    <path id="Path_181" data-name="Path 181" d="M143.943,48.495h0c0,.111.109.445.386.445a90.065,90.065,0,0,0,9.265-.391.577.577,0,0,0,.277-.5c-.334-2.774-2.22-5.6-5.1-5.6-2.66,0-4.546,2.551-4.823,6.045M159.084,57.7a5.536,5.536,0,0,1-.389,2,13.5,13.5,0,0,1-9.042,4.051,9.588,9.588,0,0,1-7.042-2.608c-2.385-2.274-3.44-5.825-3.44-9.153,0-5.157,2.217-8.431,5.048-10.316a12.509,12.509,0,0,1,6.322-1.886c5.548,0,7.71,4.659,8.153,8.208a1.492,1.492,0,0,0,.943.666,4.506,4.506,0,0,1-.609,1.774c-2.442.611-9.876,1.057-14.81,1.222-.223.054-.277.332-.277.609a8.261,8.261,0,0,0,2.44,5.159,7.964,7.964,0,0,0,5.934,2.106,10.872,10.872,0,0,0,6.491-2.271,1.523,1.523,0,0,1,.277.443" transform="translate(221.288 63.262)" fill="#fff"/>
    <path id="Path_182" data-name="Path 182" d="M31.914,42.45h0c2.883,0,4.768,2.828,5.1,5.6a.577.577,0,0,1-.277.5,90.064,90.064,0,0,1-9.265.391c-.277,0-.389-.334-.389-.445.28-3.494,2.165-6.045,4.828-6.045m10.039,14.81a10.878,10.878,0,0,1-6.491,2.271,7.974,7.974,0,0,1-5.936-2.106,8.288,8.288,0,0,1-2.44-5.159c0-.277.057-.554.28-.609,4.755-.161,11.818-.58,14.509-1.155a21.259,21.259,0,0,0-.039-2.538c-.153-3.465-2.619-8.177-8.148-8.177a12.509,12.509,0,0,0-6.322,1.886c-2.831,1.886-5.048,5.159-5.048,10.316,0,3.328,1.052,6.879,3.437,9.153A9.6,9.6,0,0,0,32.8,63.75,13.5,13.5,0,0,0,41.842,59.7c.3-.277.616-.8.389-2a1.581,1.581,0,0,0-.277-.443" transform="translate(35.486 63.262)" fill="#fff"/>
    <path id="Path_183" data-name="Path 183" d="M155.833,67.564h0A49.471,49.471,0,0,0,169.6,50.682a34.709,34.709,0,0,1,11.627,5.949c-5.644,6.278-15.406,10.42-25.4,10.933M149.5,47.053h0a39.227,39.227,0,0,0,5.367-15.4,46.046,46.046,0,0,1,17.115-2.119,51.871,51.871,0,0,1-4.25,17.182,41.23,41.23,0,0,0-18.231.332m-13.432,9.068h0a32.776,32.776,0,0,0-3.421-6.128c5.126-7.988,11.3-13.613,18.635-16.931-1.787,9.617-6.786,17.086-15.214,23.059m-7.8,8.265h0c-6.019-2.507-9.075-6.667-9.075-12.36a1.692,1.692,0,0,0-1.691-1.694h-.013a1.7,1.7,0,0,0-1.694,1.694c0,5.67-3.028,9.816-9,12.326a30.141,30.141,0,0,1-7.5,1.971c1.039-5.128,4.592-18.045,14.354-20.728a7.6,7.6,0,0,0,3.849,1.065l.018,0h.018l.016,0a7.63,7.63,0,0,0,3.831-1.052c9.726,2.709,13.274,15.6,14.307,20.718a30.225,30.225,0,0,1-7.423-1.94M83.706,33.062h0C91.038,36.38,97.216,42,102.344,49.993a32.582,32.582,0,0,0-3.427,6.131c-8.431-5.973-13.424-13.442-15.211-23.062M67.259,46.724h0a51.838,51.838,0,0,1-4.25-17.185,46.053,46.053,0,0,1,17.115,2.119,39.223,39.223,0,0,0,5.361,15.4,41.131,41.131,0,0,0-18.226-.329m11.9,20.839h0c-9.99-.513-19.752-4.654-25.4-10.933a34.74,34.74,0,0,1,11.632-5.952A49.417,49.417,0,0,0,79.155,67.564M84.232,11.37h0c5.962,1.443,10.648,3.5,14.281,6.276a1.689,1.689,0,0,0,.344.2c-.611,9.378.7,18.985,3.144,25.4,0,.127,0,.254,0,.381A43.917,43.917,0,0,0,83.165,29.112,65.988,65.988,0,0,1,84.232,11.37m20.643-6.931h0a42.139,42.139,0,0,1,10.114,6.33,45.555,45.555,0,0,0-11.93,23.018c-1.463-8.759-1.476-20.3,1.816-29.348m25.237,0h0c3.292,9.05,3.282,20.586,1.816,29.348A45.515,45.515,0,0,0,120,10.769a42.139,42.139,0,0,1,10.114-6.33M117.552,29.055h0l-.016,0h-.018l-.018,0c-4.476.021-8.115,3.96-8.115,8.8a9.215,9.215,0,0,0,1.52,5.1,18.118,18.118,0,0,0-5.468,3.525c-.06-1.1-.08-2.259-.049-3.465v-.057c.241-9.127,3.206-20.878,12.106-29.871,8.894,8.993,11.862,20.741,12.1,29.866l0,.065c.028,1.207.008,2.362-.049,3.463a18.122,18.122,0,0,0-5.418-3.5,9.214,9.214,0,0,0,1.536-5.12c0-4.843-3.636-8.783-8.115-8.8m-.023,14.219h0c-2.621-.005-4.753-2.435-4.753-5.416s2.132-5.413,4.753-5.418,4.75,2.435,4.75,5.418a5.661,5.661,0,0,1-2.023,4.421,1.762,1.762,0,0,0-.4.29,4.286,4.286,0,0,1-2.326.7M136.47,17.646h0c3.636-2.774,8.322-4.833,14.287-6.276a66.08,66.08,0,0,1,1.065,17.742,43.9,43.9,0,0,0-18.835,14.515c0-.127,0-.254-.005-.381,2.45-6.418,3.763-16.027,3.152-25.4a1.782,1.782,0,0,0,.337-.2m48.26,37.465a38.215,38.215,0,0,0-13.686-7.534,55.05,55.05,0,0,0,4.406-19.568l.047-1.616-1.611-.127a51.607,51.607,0,0,0-18.648,1.681A72.561,72.561,0,0,0,153.756,9l-.337-1.686-1.681.36a44.738,44.738,0,0,0-15.975,6.322,47.31,47.31,0,0,0-3.152-12.455L131.963,0l-1.549.627A46.037,46.037,0,0,0,117.5,8.438,46.163,46.163,0,0,0,104.574.627L103.025,0l-.65,1.538a47.408,47.408,0,0,0-3.149,12.455A44.738,44.738,0,0,0,83.25,7.672l-1.678-.36L81.235,9a72.6,72.6,0,0,0-1.487,18.949A51.6,51.6,0,0,0,61.1,26.265l-1.611.127.049,1.616a55.012,55.012,0,0,0,4.4,19.57,38.176,38.176,0,0,0-13.683,7.532L49.028,56.16l.995,1.279c6.47,8.34,18.661,13.572,31.124,13.569q1.729,0,3.458-.135l5.2-.412L85.358,67.74A45.542,45.542,0,0,1,68.774,49.871a37.27,37.27,0,0,1,20.091,1.8,44.438,44.438,0,0,0,8.793,7.708,47.405,47.405,0,0,0-2.093,8.635l-.236,1.963,1.974-.065c5.988-.194,16.185-2.777,20.192-10.567,4,7.791,14.2,10.373,20.187,10.567l1.979.065-.241-1.963a47.2,47.2,0,0,0-2.093-8.635,44.325,44.325,0,0,0,8.8-7.708,37.27,37.27,0,0,1,20.091-1.8A45.523,45.523,0,0,1,149.63,67.74l-4.447,2.722,5.2.412q1.729.136,3.46.135c12.461,0,24.654-5.229,31.127-13.569l.989-1.279Z" transform="translate(77.956 -0.001)" fill="#fff"/>
    <path id="Path_184" data-name="Path 184" d="M24.177,34.49h9.148V32.032h-.2v-.148H26.8V29.157h5.781V26.7H26.8V24.492h6.524V22.016H24.177Z" transform="translate(38.442 35.006)" fill="#fff"/>
    <path id="Path_185" data-name="Path 185" d="M34.994,27.01c-.122-.041-.262-.08-.407-.122-.842-.243-1.891-.546-1.891-1.419,0-.943,1.3-1.083,2.069-1.083.228,0,.445.008.653.026a5.879,5.879,0,0,1,2.769.917l.148.1.018-.036.135.093,1.067-2.266-.153-.091a8.691,8.691,0,0,0-4.636-1.22c-3.082,0-4.714,1.233-4.714,3.561,0,2.642,2.2,3.579,4.354,4.152,1.554.342,2.264.689,2.479,1.246a1.344,1.344,0,0,1,.026.256c0,.741-.855,1.184-2.284,1.184a7.186,7.186,0,0,1-3.572-.878c-.065-.036-.117-.065-.155-.083l-.137-.065-.062.135-.044-.021-1.033,2.22.155.091a9.662,9.662,0,0,0,4.877,1.235c3.24,0,4.955-1.264,4.955-3.655,0-2.5-1.849-3.52-4.615-4.276" transform="translate(47.1 34.834)" fill="#fff"/>
    <path id="Path_186" data-name="Path 186" d="M35.284,24.493h3.958v10h2.644v-10h3.958V22.017H35.284Z" transform="translate(56.103 35.007)" fill="#fff"/>
    <path id="Path_187" data-name="Path 187" d="M48.287,27.722h0v.919c0,2.3-.855,3.24-2.953,3.24H44.05V24.492h1.326a4.439,4.439,0,0,1,1.311.174c1.119.373,1.6,1.334,1.6,3.056m-2.911-5.706h-3.95V34.49h3.95C49.056,34.49,51,32.5,51,28.735v-.948c0-3.776-1.945-5.771-5.626-5.771" transform="translate(65.869 35.006)" fill="#fff"/>
    <path id="Path_188" data-name="Path 188" d="M105.811,24.493H108.3v10h2.606V22.017h-5.1Z" transform="translate(168.243 35.007)" fill="#fff"/>
    <path id="Path_189" data-name="Path 189" d="M114.377,27.819h0a1.5,1.5,0,0,1-1.7-1.681c0-1.627,1.173-1.753,1.533-1.753,1.593,0,2.178.8,2.2,3.023a4.493,4.493,0,0,1-2.031.412m-.223-5.91c-2.567,0-4.1,1.583-4.1,4.23,0,2.523,1.557,3.971,4.268,3.971a6.232,6.232,0,0,0,2.08-.319c-.07,1.8-.826,2.673-2.3,2.673a4.664,4.664,0,0,1-2.96-1.013l-.207-.176-.917,2.279.106.093a5.815,5.815,0,0,0,3.885,1.292c3.481,0,5.1-2.139,5.1-6.737,0-2.7-.513-6.294-4.955-6.294" transform="translate(174.927 34.835)" fill="#fff"/>
    <path id="Path_190" data-name="Path 190" d="M115.2,24.493h2.489v10h2.608V22.017h-5.1Z" transform="translate(183.166 35.007)" fill="#fff"/>
    <path id="Path_191" data-name="Path 191" d="M123.978,29.163h0c1.321,0,2.108.614,2.108,1.639,0,1.067-.769,1.681-2.108,1.681s-2.106-.614-2.106-1.681c0-1.026.787-1.639,2.106-1.639m0-2.181h0c-1.09,0-1.715-.469-1.715-1.287,0-.614.448-1.326,1.715-1.326s1.717.712,1.717,1.326c0,.818-.624,1.287-1.717,1.287m3.087.995a2.988,2.988,0,0,0,1.256-2.6c0-1.911-1.948-3.468-4.343-3.468s-4.341,1.557-4.341,3.468a2.991,2.991,0,0,0,1.256,2.6,3.36,3.36,0,0,0-1.663,2.994c0,1.911,1.484,3.971,4.748,3.971s4.753-2.059,4.753-3.971a3.366,3.366,0,0,0-1.665-2.994" transform="translate(189.579 34.834)" fill="#fff"/>
  </g>
</svg>
